<svg width="432" height="98" viewBox="0 0 432 98" fill="none" xmlns="http://www.w3.org/2000/svg">
<g filter="url(#filter0_d_76_516)">
<path d="M15.9205 42.8551V42.7931L37.6364 19H53V79L37.6364 64.0739V41.6108L26.7045 53.5813L15.9205 42.8551V64.0739H1V28.0148L15.9205 42.8551Z" fill="#2DA691"/>
<path d="M15.9205 42.7931V64.0739H1V28.0148L26.7045 53.5813L37.6364 41.6108V64.0739L53 79V19H37.6364L15.9205 42.7931Z" stroke="black" stroke-width="2"/>
</g>
<g filter="url(#filter1_d_76_516)">
<mask id="path-3-outside-1_76_516" maskUnits="userSpaceOnUse" x="85" y="24" width="343" height="48" fill="black">
<rect fill="white" x="85" y="24" width="343" height="48"/>
<path d="M147.964 69H135.932V52.744C135.932 50.4827 135.505 48.9467 134.652 48.136C133.841 47.2827 132.177 46.856 129.66 46.856C127.185 46.856 125.564 47.2613 124.796 48.072C124.071 48.84 123.708 50.2693 123.708 52.36H122.492L121.468 46.536H123.644C123.9 44.744 124.433 43.0587 125.244 41.48C126.097 39.9013 127.377 38.6213 129.084 37.64C130.791 36.616 133.031 36.104 135.804 36.104C138.577 36.104 140.86 36.6373 142.652 37.704C144.444 38.7707 145.767 40.2213 146.62 42.056C147.516 43.8907 147.964 45.9813 147.964 48.328V69ZM99.452 69H87.42V36.744H98.684V46.664L99.452 46.984V69ZM123.708 69H111.676V52.744C111.676 50.4827 111.249 48.9467 110.396 48.136C109.585 47.2827 107.921 46.856 105.404 46.856C102.929 46.856 101.308 47.2613 100.54 48.072C99.8147 48.84 99.452 50.2693 99.452 52.36H98.236L97.212 46.536H99.324C99.58 44.744 100.113 43.0587 100.924 41.48C101.735 39.9013 102.951 38.6213 104.572 37.64C106.236 36.616 108.412 36.104 111.1 36.104C113.916 36.104 116.199 36.6587 117.948 37.768C119.697 38.8773 120.977 40.3707 121.788 42.248C122.641 44.0827 123.068 46.1093 123.068 48.328H123.708V69ZM163.577 69H151.545V36.744H163.577V69ZM163.577 33.8H151.545V26.12H163.577V33.8ZM204.988 69H192.956V52.744C192.956 50.4827 192.465 48.9467 191.484 48.136C190.503 47.2827 188.689 46.856 186.044 46.856C183.399 46.856 181.628 47.2613 180.732 48.072C179.879 48.84 179.452 50.2693 179.452 52.36H178.236L177.212 46.536H179.324C179.58 44.744 180.156 43.0587 181.052 41.48C181.991 39.9013 183.356 38.6213 185.148 37.64C186.983 36.616 189.329 36.104 192.188 36.104C195.089 36.104 197.479 36.6373 199.356 37.704C201.276 38.7707 202.684 40.2213 203.58 42.056C204.519 43.8907 204.988 45.9813 204.988 48.328V69ZM179.452 69H167.42V36.744H178.684V46.664L179.452 46.984V69ZM220.577 69H208.545V36.744H220.577V69ZM220.577 33.8H208.545V26.12H220.577V33.8ZM241.764 69.64C236.089 69.64 231.759 68.5947 228.772 66.504C225.785 64.4133 224.292 61.512 224.292 57.8V57.544H236.324V58.184C236.324 59.08 236.687 59.6347 237.412 59.848C238.18 60.0613 239.652 60.168 241.828 60.168C243.919 60.168 245.241 60.0613 245.796 59.848C246.351 59.592 246.628 59.1867 246.628 58.632C246.628 58.12 246.415 57.7787 245.988 57.608C245.561 57.3947 244.601 57.2027 243.108 57.032L233.764 56.008C230.436 55.6667 227.897 54.728 226.148 53.192C224.399 51.6133 223.524 49.4587 223.524 46.728C223.524 44.808 224.057 43.0587 225.124 41.48C226.233 39.8587 228.004 38.5573 230.436 37.576C232.911 36.5947 236.153 36.104 240.164 36.104C243.919 36.104 247.055 36.552 249.572 37.448C252.132 38.344 254.052 39.688 255.332 41.48C256.655 43.2293 257.316 45.4267 257.316 48.072V48.328H245.284V47.944C245.284 47.3893 245.156 46.9413 244.9 46.6C244.687 46.216 244.175 45.9387 243.364 45.768C242.596 45.5973 241.401 45.512 239.78 45.512C237.817 45.512 236.58 45.6613 236.068 45.96C235.599 46.216 235.364 46.6427 235.364 47.24C235.364 47.6667 235.599 48.008 236.068 48.264C236.58 48.52 237.775 48.7547 239.652 48.968L246.052 49.672C250.745 50.184 253.988 51.2293 255.78 52.808C257.572 54.3867 258.468 56.5413 258.468 59.272C258.468 61.2773 257.807 63.0693 256.484 64.648C255.204 66.184 253.327 67.4 250.852 68.296C248.377 69.192 245.348 69.64 241.764 69.64ZM285.486 69H277.038C273.027 69 269.87 67.9973 267.566 65.992C265.304 63.9867 264.174 60.8933 264.174 56.712V31.176H276.206V54.984C276.206 56.264 276.44 57.1173 276.91 57.544C277.422 57.9707 278.36 58.184 279.726 58.184H285.486V69ZM285.486 46.6H259.438V36.744H285.486V46.6ZM301.606 69.64C298.619 69.64 296.144 69.1067 294.182 68.04C292.219 66.9733 290.747 65.5227 289.766 63.688C288.827 61.8533 288.358 59.7627 288.358 57.416V36.744H300.39V53C300.39 55.2187 300.902 56.7547 301.926 57.608C302.992 58.4613 304.891 58.888 307.622 58.888C310.395 58.888 312.23 58.504 313.126 57.736C314.064 56.9253 314.534 55.4747 314.534 53.384H315.75L316.774 59.208H314.662C314.448 61 313.872 62.6853 312.934 64.264C311.995 65.8427 310.608 67.144 308.774 68.168C306.939 69.1493 304.55 69.64 301.606 69.64ZM326.566 69H315.302V59.08L314.534 58.76V36.744H326.566V69ZM344.826 69.64C341.541 69.64 338.746 68.9787 336.442 67.656C334.181 66.2907 332.453 64.3493 331.258 61.832C330.106 59.3147 329.53 56.328 329.53 52.872C329.53 49.3733 330.106 46.3867 331.258 43.912C332.41 41.3947 334.074 39.4747 336.25 38.152C338.469 36.7867 341.157 36.104 344.314 36.104C348.111 36.104 350.97 36.936 352.89 38.6C354.81 40.2213 356.005 42.376 356.474 45.064H358.33V52.488H357.114C357.114 50.2267 356.453 48.7547 355.13 48.072C353.85 47.3893 351.866 47.048 349.178 47.048C347.343 47.048 345.871 47.24 344.762 47.624C343.653 48.008 342.863 48.6267 342.394 49.48C341.925 50.2907 341.69 51.4213 341.69 52.872C341.69 54.28 341.925 55.4107 342.394 56.264C342.863 57.1173 343.653 57.736 344.762 58.12C345.871 58.4613 347.343 58.632 349.178 58.632C350.97 58.632 352.442 58.4827 353.594 58.184C354.789 57.8853 355.663 57.3307 356.218 56.52C356.815 55.6667 357.114 54.472 357.114 52.936H358.33L359.226 60.296H357.242C356.73 63.496 355.471 65.864 353.466 67.4C351.503 68.8933 348.623 69.64 344.826 69.64ZM369.146 69H357.882V59.912L357.114 59.08V26.12H369.146V69ZM385.015 69H372.983V36.744H385.015V69ZM385.015 33.8H372.983V26.12H385.015V33.8ZM406.714 69.64C403.002 69.64 399.716 68.9787 396.858 67.656C394.042 66.2907 391.844 64.3493 390.266 61.832C388.687 59.3147 387.898 56.328 387.898 52.872C387.898 49.3733 388.687 46.3867 390.266 43.912C391.844 41.3947 394.042 39.4747 396.858 38.152C399.716 36.7867 403.002 36.104 406.714 36.104C410.468 36.104 413.754 36.7867 416.57 38.152C419.386 39.4747 421.583 41.3947 423.162 43.912C424.74 46.3867 425.53 49.3733 425.53 52.872C425.53 56.328 424.74 59.3147 423.162 61.832C421.583 64.3493 419.386 66.2907 416.57 67.656C413.754 68.9787 410.468 69.64 406.714 69.64ZM406.714 59.016C409.444 59.016 411.279 58.5893 412.218 57.736C413.156 56.84 413.626 55.2187 413.626 52.872C413.626 50.5253 413.156 48.904 412.218 48.008C411.279 47.112 409.444 46.664 406.714 46.664C403.983 46.664 402.148 47.112 401.21 48.008C400.271 48.904 399.802 50.5253 399.802 52.872C399.802 55.2187 400.271 56.84 401.21 57.736C402.148 58.5893 403.983 59.016 406.714 59.016Z"/>
</mask>
<path d="M147.964 69H135.932V52.744C135.932 50.4827 135.505 48.9467 134.652 48.136C133.841 47.2827 132.177 46.856 129.66 46.856C127.185 46.856 125.564 47.2613 124.796 48.072C124.071 48.84 123.708 50.2693 123.708 52.36H122.492L121.468 46.536H123.644C123.9 44.744 124.433 43.0587 125.244 41.48C126.097 39.9013 127.377 38.6213 129.084 37.64C130.791 36.616 133.031 36.104 135.804 36.104C138.577 36.104 140.86 36.6373 142.652 37.704C144.444 38.7707 145.767 40.2213 146.62 42.056C147.516 43.8907 147.964 45.9813 147.964 48.328V69ZM99.452 69H87.42V36.744H98.684V46.664L99.452 46.984V69ZM123.708 69H111.676V52.744C111.676 50.4827 111.249 48.9467 110.396 48.136C109.585 47.2827 107.921 46.856 105.404 46.856C102.929 46.856 101.308 47.2613 100.54 48.072C99.8147 48.84 99.452 50.2693 99.452 52.36H98.236L97.212 46.536H99.324C99.58 44.744 100.113 43.0587 100.924 41.48C101.735 39.9013 102.951 38.6213 104.572 37.64C106.236 36.616 108.412 36.104 111.1 36.104C113.916 36.104 116.199 36.6587 117.948 37.768C119.697 38.8773 120.977 40.3707 121.788 42.248C122.641 44.0827 123.068 46.1093 123.068 48.328H123.708V69ZM163.577 69H151.545V36.744H163.577V69ZM163.577 33.8H151.545V26.12H163.577V33.8ZM204.988 69H192.956V52.744C192.956 50.4827 192.465 48.9467 191.484 48.136C190.503 47.2827 188.689 46.856 186.044 46.856C183.399 46.856 181.628 47.2613 180.732 48.072C179.879 48.84 179.452 50.2693 179.452 52.36H178.236L177.212 46.536H179.324C179.58 44.744 180.156 43.0587 181.052 41.48C181.991 39.9013 183.356 38.6213 185.148 37.64C186.983 36.616 189.329 36.104 192.188 36.104C195.089 36.104 197.479 36.6373 199.356 37.704C201.276 38.7707 202.684 40.2213 203.58 42.056C204.519 43.8907 204.988 45.9813 204.988 48.328V69ZM179.452 69H167.42V36.744H178.684V46.664L179.452 46.984V69ZM220.577 69H208.545V36.744H220.577V69ZM220.577 33.8H208.545V26.12H220.577V33.8ZM241.764 69.64C236.089 69.64 231.759 68.5947 228.772 66.504C225.785 64.4133 224.292 61.512 224.292 57.8V57.544H236.324V58.184C236.324 59.08 236.687 59.6347 237.412 59.848C238.18 60.0613 239.652 60.168 241.828 60.168C243.919 60.168 245.241 60.0613 245.796 59.848C246.351 59.592 246.628 59.1867 246.628 58.632C246.628 58.12 246.415 57.7787 245.988 57.608C245.561 57.3947 244.601 57.2027 243.108 57.032L233.764 56.008C230.436 55.6667 227.897 54.728 226.148 53.192C224.399 51.6133 223.524 49.4587 223.524 46.728C223.524 44.808 224.057 43.0587 225.124 41.48C226.233 39.8587 228.004 38.5573 230.436 37.576C232.911 36.5947 236.153 36.104 240.164 36.104C243.919 36.104 247.055 36.552 249.572 37.448C252.132 38.344 254.052 39.688 255.332 41.48C256.655 43.2293 257.316 45.4267 257.316 48.072V48.328H245.284V47.944C245.284 47.3893 245.156 46.9413 244.9 46.6C244.687 46.216 244.175 45.9387 243.364 45.768C242.596 45.5973 241.401 45.512 239.78 45.512C237.817 45.512 236.58 45.6613 236.068 45.96C235.599 46.216 235.364 46.6427 235.364 47.24C235.364 47.6667 235.599 48.008 236.068 48.264C236.58 48.52 237.775 48.7547 239.652 48.968L246.052 49.672C250.745 50.184 253.988 51.2293 255.78 52.808C257.572 54.3867 258.468 56.5413 258.468 59.272C258.468 61.2773 257.807 63.0693 256.484 64.648C255.204 66.184 253.327 67.4 250.852 68.296C248.377 69.192 245.348 69.64 241.764 69.64ZM285.486 69H277.038C273.027 69 269.87 67.9973 267.566 65.992C265.304 63.9867 264.174 60.8933 264.174 56.712V31.176H276.206V54.984C276.206 56.264 276.44 57.1173 276.91 57.544C277.422 57.9707 278.36 58.184 279.726 58.184H285.486V69ZM285.486 46.6H259.438V36.744H285.486V46.6ZM301.606 69.64C298.619 69.64 296.144 69.1067 294.182 68.04C292.219 66.9733 290.747 65.5227 289.766 63.688C288.827 61.8533 288.358 59.7627 288.358 57.416V36.744H300.39V53C300.39 55.2187 300.902 56.7547 301.926 57.608C302.992 58.4613 304.891 58.888 307.622 58.888C310.395 58.888 312.23 58.504 313.126 57.736C314.064 56.9253 314.534 55.4747 314.534 53.384H315.75L316.774 59.208H314.662C314.448 61 313.872 62.6853 312.934 64.264C311.995 65.8427 310.608 67.144 308.774 68.168C306.939 69.1493 304.55 69.64 301.606 69.64ZM326.566 69H315.302V59.08L314.534 58.76V36.744H326.566V69ZM344.826 69.64C341.541 69.64 338.746 68.9787 336.442 67.656C334.181 66.2907 332.453 64.3493 331.258 61.832C330.106 59.3147 329.53 56.328 329.53 52.872C329.53 49.3733 330.106 46.3867 331.258 43.912C332.41 41.3947 334.074 39.4747 336.25 38.152C338.469 36.7867 341.157 36.104 344.314 36.104C348.111 36.104 350.97 36.936 352.89 38.6C354.81 40.2213 356.005 42.376 356.474 45.064H358.33V52.488H357.114C357.114 50.2267 356.453 48.7547 355.13 48.072C353.85 47.3893 351.866 47.048 349.178 47.048C347.343 47.048 345.871 47.24 344.762 47.624C343.653 48.008 342.863 48.6267 342.394 49.48C341.925 50.2907 341.69 51.4213 341.69 52.872C341.69 54.28 341.925 55.4107 342.394 56.264C342.863 57.1173 343.653 57.736 344.762 58.12C345.871 58.4613 347.343 58.632 349.178 58.632C350.97 58.632 352.442 58.4827 353.594 58.184C354.789 57.8853 355.663 57.3307 356.218 56.52C356.815 55.6667 357.114 54.472 357.114 52.936H358.33L359.226 60.296H357.242C356.73 63.496 355.471 65.864 353.466 67.4C351.503 68.8933 348.623 69.64 344.826 69.64ZM369.146 69H357.882V59.912L357.114 59.08V26.12H369.146V69ZM385.015 69H372.983V36.744H385.015V69ZM385.015 33.8H372.983V26.12H385.015V33.8ZM406.714 69.64C403.002 69.64 399.716 68.9787 396.858 67.656C394.042 66.2907 391.844 64.3493 390.266 61.832C388.687 59.3147 387.898 56.328 387.898 52.872C387.898 49.3733 388.687 46.3867 390.266 43.912C391.844 41.3947 394.042 39.4747 396.858 38.152C399.716 36.7867 403.002 36.104 406.714 36.104C410.468 36.104 413.754 36.7867 416.57 38.152C419.386 39.4747 421.583 41.3947 423.162 43.912C424.74 46.3867 425.53 49.3733 425.53 52.872C425.53 56.328 424.74 59.3147 423.162 61.832C421.583 64.3493 419.386 66.2907 416.57 67.656C413.754 68.9787 410.468 69.64 406.714 69.64ZM406.714 59.016C409.444 59.016 411.279 58.5893 412.218 57.736C413.156 56.84 413.626 55.2187 413.626 52.872C413.626 50.5253 413.156 48.904 412.218 48.008C411.279 47.112 409.444 46.664 406.714 46.664C403.983 46.664 402.148 47.112 401.21 48.008C400.271 48.904 399.802 50.5253 399.802 52.872C399.802 55.2187 400.271 56.84 401.21 57.736C402.148 58.5893 403.983 59.016 406.714 59.016Z" fill="#2DA691"/>
<path d="M147.964 69V71H149.964V69H147.964ZM135.932 69H133.932V71H135.932V69ZM134.652 48.136L133.202 49.5135L133.237 49.5507L133.275 49.586L134.652 48.136ZM124.796 48.072L123.344 46.6965L123.342 46.6988L124.796 48.072ZM123.708 52.36V54.36H125.708V52.36H123.708ZM122.492 52.36L120.522 52.7063L120.813 54.36H122.492V52.36ZM121.468 46.536V44.536H119.086L119.498 46.8823L121.468 46.536ZM123.644 46.536V48.536H125.379L125.624 46.8188L123.644 46.536ZM125.244 41.48L123.485 40.529L123.475 40.5476L123.465 40.5664L125.244 41.48ZM129.084 37.64L130.081 39.3738L130.097 39.3645L130.113 39.355L129.084 37.64ZM142.652 37.704L143.675 35.9854H143.675L142.652 37.704ZM146.62 42.056L144.807 42.8995L144.815 42.9166L144.823 42.9337L146.62 42.056ZM99.452 69V71H101.452V69H99.452ZM87.42 69H85.42V71H87.42V69ZM87.42 36.744V34.744H85.42V36.744H87.42ZM98.684 36.744H100.684V34.744H98.684V36.744ZM98.684 46.664H96.684V47.9973L97.9148 48.5102L98.684 46.664ZM99.452 46.984H101.452V45.6507L100.221 45.1378L99.452 46.984ZM123.708 69V71H125.708V69H123.708ZM111.676 69H109.676V71H111.676V69ZM110.396 48.136L108.946 49.5135L108.981 49.5507L109.019 49.586L110.396 48.136ZM100.54 48.072L99.0881 46.6965L99.086 46.6988L100.54 48.072ZM99.452 52.36V54.36H101.452V52.36H99.452ZM98.236 52.36L96.2662 52.7063L96.557 54.36H98.236V52.36ZM97.212 46.536V44.536H94.8297L95.2422 46.8823L97.212 46.536ZM99.324 46.536V48.536H101.059L101.304 46.8188L99.324 46.536ZM100.924 41.48L99.1449 40.5664V40.5664L100.924 41.48ZM104.572 37.64L105.608 39.351L105.614 39.3472L105.62 39.3433L104.572 37.64ZM117.948 37.768L119.019 36.079V36.079L117.948 37.768ZM121.788 42.248L119.952 43.0409L119.963 43.0663L119.975 43.0915L121.788 42.248ZM123.068 48.328H121.068V50.328H123.068V48.328ZM123.708 48.328H125.708V46.328H123.708V48.328ZM147.964 69V67H135.932V69V71H147.964V69ZM135.932 69H137.932V52.744H135.932H133.932V69H135.932ZM135.932 52.744H137.932C137.932 50.3849 137.518 48.1003 136.029 46.686L134.652 48.136L133.275 49.586C133.492 49.793 133.932 50.5804 133.932 52.744H135.932ZM134.652 48.136L136.102 46.7585C135.345 45.9615 134.331 45.5049 133.293 45.2387C132.242 44.9693 131.016 44.856 129.66 44.856V46.856V48.856C130.821 48.856 131.686 48.956 132.299 49.1133C132.925 49.2737 133.148 49.4571 133.202 49.5135L134.652 48.136ZM129.66 46.856V44.856C128.329 44.856 127.128 44.9633 126.103 45.2197C125.094 45.4719 124.09 45.9095 123.344 46.6965L124.796 48.072L126.248 49.4475C126.27 49.4238 126.46 49.2535 127.073 49.1003C127.669 48.9513 128.516 48.856 129.66 48.856V46.856ZM124.796 48.072L123.342 46.6988C122.052 48.0641 121.708 50.1913 121.708 52.36H123.708H125.708C125.708 50.3473 126.089 49.6159 126.25 49.4452L124.796 48.072ZM123.708 52.36V50.36H122.492V52.36V54.36H123.708V52.36ZM122.492 52.36L124.462 52.0137L123.438 46.1897L121.468 46.536L119.498 46.8823L120.522 52.7063L122.492 52.36ZM121.468 46.536V48.536H123.644V46.536V44.536H121.468V46.536ZM123.644 46.536L125.624 46.8188C125.849 45.2423 126.316 43.7706 127.023 42.3936L125.244 41.48L123.465 40.5664C122.551 42.3467 121.951 44.2457 121.664 46.2532L123.644 46.536ZM125.244 41.48L127.003 42.431C127.663 41.2103 128.664 40.1886 130.081 39.3738L129.084 37.64L128.087 35.9062C126.091 37.054 124.531 38.5923 123.485 40.529L125.244 41.48ZM129.084 37.64L130.113 39.355C131.41 38.5769 133.257 38.104 135.804 38.104V36.104V34.104C132.804 34.104 130.172 34.6551 128.055 35.925L129.084 37.64ZM135.804 36.104V38.104C138.332 38.104 140.232 38.5913 141.629 39.4226L142.652 37.704L143.675 35.9854C141.488 34.6834 138.822 34.104 135.804 34.104V36.104ZM142.652 37.704L141.629 39.4226C143.087 40.2903 144.128 41.441 144.807 42.8995L146.62 42.056L148.433 41.2125C147.405 39.0016 145.801 37.251 143.675 35.9854L142.652 37.704ZM146.62 42.056L144.823 42.9337C145.567 44.4569 145.964 46.24 145.964 48.328H147.964H149.964C149.964 45.7226 149.465 43.3244 148.417 41.1783L146.62 42.056ZM147.964 48.328H145.964V69H147.964H149.964V48.328H147.964ZM99.452 69V67H87.42V69V71H99.452V69ZM87.42 69H89.42V36.744H87.42H85.42V69H87.42ZM87.42 36.744V38.744H98.684V36.744V34.744H87.42V36.744ZM98.684 36.744H96.684V46.664H98.684H100.684V36.744H98.684ZM98.684 46.664L97.9148 48.5102L98.6828 48.8302L99.452 46.984L100.221 45.1378L99.4532 44.8178L98.684 46.664ZM99.452 46.984H97.452V69H99.452H101.452V46.984H99.452ZM123.708 69V67H111.676V69V71H123.708V69ZM111.676 69H113.676V52.744H111.676H109.676V69H111.676ZM111.676 52.744H113.676C113.676 50.3849 113.262 48.1003 111.774 46.686L110.396 48.136L109.019 49.586C109.236 49.793 109.676 50.5804 109.676 52.744H111.676ZM110.396 48.136L111.846 46.7585C111.089 45.9615 110.075 45.5049 109.037 45.2387C107.986 44.9693 106.76 44.856 105.404 44.856V46.856V48.856C106.565 48.856 107.43 48.956 108.043 49.1133C108.669 49.2737 108.892 49.4571 108.946 49.5135L110.396 48.136ZM105.404 46.856V44.856C104.073 44.856 102.872 44.9633 101.847 45.2197C100.838 45.4719 99.8336 45.9095 99.0881 46.6965L100.54 48.072L101.992 49.4475C102.014 49.4238 102.204 49.2535 102.817 49.1003C103.413 48.9513 104.26 48.856 105.404 48.856V46.856ZM100.54 48.072L99.086 46.6988C97.7965 48.0641 97.452 50.1913 97.452 52.36H99.452H101.452C101.452 50.3473 101.833 49.6159 101.994 49.4452L100.54 48.072ZM99.452 52.36V50.36H98.236V52.36V54.36H99.452V52.36ZM98.236 52.36L100.206 52.0137L99.1818 46.1897L97.212 46.536L95.2422 46.8823L96.2662 52.7063L98.236 52.36ZM97.212 46.536V48.536H99.324V46.536V44.536H97.212V46.536ZM99.324 46.536L101.304 46.8188C101.529 45.2423 101.996 43.7706 102.703 42.3936L100.924 41.48L99.1449 40.5664C98.2307 42.3467 97.6309 44.2457 97.3441 46.2532L99.324 46.536ZM100.924 41.48L102.703 42.3936C103.333 41.167 104.281 40.1541 105.608 39.351L104.572 37.64L103.536 35.929C101.621 37.0886 100.136 38.6356 99.1449 40.5664L100.924 41.48ZM104.572 37.64L105.62 39.3433C106.872 38.5731 108.648 38.104 111.1 38.104V36.104V34.104C108.176 34.104 105.6 34.6589 103.524 35.9367L104.572 37.64ZM111.1 36.104V38.104C113.669 38.104 115.544 38.6115 116.877 39.457L117.948 37.768L119.019 36.079C116.854 34.7058 114.163 34.104 111.1 34.104V36.104ZM117.948 37.768L116.877 39.457C118.292 40.3542 119.303 41.5374 119.952 43.0409L121.788 42.248L123.624 41.4551C122.652 39.204 121.103 37.4005 119.019 36.079L117.948 37.768ZM121.788 42.248L119.975 43.0915C120.694 44.6373 121.068 46.3723 121.068 48.328H123.068H125.068C125.068 45.8464 124.589 43.528 123.601 41.4045L121.788 42.248ZM123.068 48.328V50.328H123.708V48.328V46.328H123.068V48.328ZM123.708 48.328H121.708V69H123.708H125.708V48.328H123.708ZM163.577 69V71H165.577V69H163.577ZM151.545 69H149.545V71H151.545V69ZM151.545 36.744V34.744H149.545V36.744H151.545ZM163.577 36.744H165.577V34.744H163.577V36.744ZM163.577 33.8V35.8H165.577V33.8H163.577ZM151.545 33.8H149.545V35.8H151.545V33.8ZM151.545 26.12V24.12H149.545V26.12H151.545ZM163.577 26.12H165.577V24.12H163.577V26.12ZM163.577 69V67H151.545V69V71H163.577V69ZM151.545 69H153.545V36.744H151.545H149.545V69H151.545ZM151.545 36.744V38.744H163.577V36.744V34.744H151.545V36.744ZM163.577 36.744H161.577V69H163.577H165.577V36.744H163.577ZM163.577 33.8V31.8H151.545V33.8V35.8H163.577V33.8ZM151.545 33.8H153.545V26.12H151.545H149.545V33.8H151.545ZM151.545 26.12V28.12H163.577V26.12V24.12H151.545V26.12ZM163.577 26.12H161.577V33.8H163.577H165.577V26.12H163.577ZM204.988 69V71H206.988V69H204.988ZM192.956 69H190.956V71H192.956V69ZM191.484 48.136L190.172 49.6452L190.191 49.6618L190.21 49.6779L191.484 48.136ZM180.732 48.072L182.07 49.5586L182.074 49.5551L180.732 48.072ZM179.452 52.36V54.36H181.452V52.36H179.452ZM178.236 52.36L176.266 52.7063L176.557 54.36H178.236V52.36ZM177.212 46.536V44.536H174.83L175.242 46.8823L177.212 46.536ZM179.324 46.536V48.536H181.059L181.304 46.8188L179.324 46.536ZM181.052 41.48L179.333 40.4578L179.323 40.4752L179.313 40.4928L181.052 41.48ZM185.148 37.64L186.109 39.3942L186.116 39.3903L186.123 39.3864L185.148 37.64ZM199.356 37.704L198.368 39.4429L198.376 39.4477L198.385 39.4523L199.356 37.704ZM203.58 42.056L201.783 42.9337L201.791 42.9504L201.8 42.9669L203.58 42.056ZM179.452 69V71H181.452V69H179.452ZM167.42 69H165.42V71H167.42V69ZM167.42 36.744V34.744H165.42V36.744H167.42ZM178.684 36.744H180.684V34.744H178.684V36.744ZM178.684 46.664H176.684V47.9973L177.915 48.5102L178.684 46.664ZM179.452 46.984H181.452V45.6507L180.221 45.1378L179.452 46.984ZM204.988 69V67H192.956V69V71H204.988V69ZM192.956 69H194.956V52.744H192.956H190.956V69H192.956ZM192.956 52.744H194.956C194.956 50.3247 194.454 47.9957 192.758 46.5941L191.484 48.136L190.21 49.6779C190.476 49.8976 190.956 50.6407 190.956 52.744H192.956ZM191.484 48.136L192.796 46.6268C191.226 45.2608 188.751 44.856 186.044 44.856V46.856V48.856C188.628 48.856 189.78 49.3045 190.172 49.6452L191.484 48.136ZM186.044 46.856V44.856C184.633 44.856 183.367 44.9628 182.286 45.2104C181.222 45.454 180.188 45.8669 179.39 46.5889L180.732 48.072L182.074 49.5551C182.172 49.4664 182.472 49.2713 183.178 49.1096C183.867 48.9518 184.81 48.856 186.044 48.856V46.856ZM180.732 48.072L179.394 46.5854C177.881 47.9473 177.452 50.132 177.452 52.36H179.452H181.452C181.452 50.4067 181.877 49.7327 182.07 49.5586L180.732 48.072ZM179.452 52.36V50.36H178.236V52.36V54.36H179.452V52.36ZM178.236 52.36L180.206 52.0137L179.182 46.1897L177.212 46.536L175.242 46.8823L176.266 52.7063L178.236 52.36ZM177.212 46.536V48.536H179.324V46.536V44.536H177.212V46.536ZM179.324 46.536L181.304 46.8188C181.524 45.2753 182.019 43.8288 182.791 42.4672L181.052 41.48L179.313 40.4928C178.293 42.2885 177.636 44.2127 177.344 46.2532L179.324 46.536ZM181.052 41.48L182.771 42.5022C183.507 41.2645 184.594 40.2235 186.109 39.3942L185.148 37.64L184.187 35.8858C182.118 37.0191 180.474 38.5381 179.333 40.4578L181.052 41.48ZM185.148 37.64L186.123 39.3864C187.571 38.5779 189.553 38.104 192.188 38.104V36.104V34.104C189.106 34.104 186.394 34.654 184.173 35.8936L185.148 37.64ZM192.188 36.104V38.104C194.858 38.104 196.878 38.5963 198.368 39.4429L199.356 37.704L200.344 35.9651C198.079 34.6784 195.321 34.104 192.188 34.104V36.104ZM199.356 37.704L198.385 39.4523C199.975 40.336 201.08 41.4952 201.783 42.9337L203.58 42.056L205.377 41.1783C204.288 38.9475 202.577 37.2053 200.327 35.9557L199.356 37.704ZM203.58 42.056L201.8 42.9669C202.575 44.4827 202.988 46.2538 202.988 48.328H204.988H206.988C206.988 45.7088 206.462 43.2986 205.36 41.145L203.58 42.056ZM204.988 48.328H202.988V69H204.988H206.988V48.328H204.988ZM179.452 69V67H167.42V69V71H179.452V69ZM167.42 69H169.42V36.744H167.42H165.42V69H167.42ZM167.42 36.744V38.744H178.684V36.744V34.744H167.42V36.744ZM178.684 36.744H176.684V46.664H178.684H180.684V36.744H178.684ZM178.684 46.664L177.915 48.5102L178.683 48.8302L179.452 46.984L180.221 45.1378L179.453 44.8178L178.684 46.664ZM179.452 46.984H177.452V69H179.452H181.452V46.984H179.452ZM220.577 69V71H222.577V69H220.577ZM208.545 69H206.545V71H208.545V69ZM208.545 36.744V34.744H206.545V36.744H208.545ZM220.577 36.744H222.577V34.744H220.577V36.744ZM220.577 33.8V35.8H222.577V33.8H220.577ZM208.545 33.8H206.545V35.8H208.545V33.8ZM208.545 26.12V24.12H206.545V26.12H208.545ZM220.577 26.12H222.577V24.12H220.577V26.12ZM220.577 69V67H208.545V69V71H220.577V69ZM208.545 69H210.545V36.744H208.545H206.545V69H208.545ZM208.545 36.744V38.744H220.577V36.744V34.744H208.545V36.744ZM220.577 36.744H218.577V69H220.577H222.577V36.744H220.577ZM220.577 33.8V31.8H208.545V33.8V35.8H220.577V33.8ZM208.545 33.8H210.545V26.12H208.545H206.545V33.8H208.545ZM208.545 26.12V28.12H220.577V26.12V24.12H208.545V26.12ZM220.577 26.12H218.577V33.8H220.577H222.577V26.12H220.577ZM228.772 66.504L227.625 68.1425V68.1425L228.772 66.504ZM224.292 57.544V55.544H222.292V57.544H224.292ZM236.324 57.544H238.324V55.544H236.324V57.544ZM237.412 59.848L236.848 61.7667L236.862 61.771L236.877 61.775L237.412 59.848ZM245.796 59.848L246.514 61.7147L246.575 61.6913L246.634 61.6639L245.796 59.848ZM245.988 57.608L245.094 59.3969L245.168 59.4341L245.245 59.465L245.988 57.608ZM243.108 57.032L243.335 55.0449L243.326 55.0439L243.108 57.032ZM233.764 56.008L233.982 54.0199L233.968 54.0184L233.764 56.008ZM226.148 53.192L224.808 54.6768L224.818 54.6859L224.828 54.6949L226.148 53.192ZM225.124 41.48L223.473 40.3506L223.467 40.3603L225.124 41.48ZM230.436 37.576L229.699 35.7168L229.688 35.7213L230.436 37.576ZM249.572 37.448L248.901 39.3322L248.911 39.3357L249.572 37.448ZM255.332 41.48L253.705 42.6425L253.72 42.6646L253.737 42.6862L255.332 41.48ZM257.316 48.328V50.328H259.316V48.328H257.316ZM245.284 48.328H243.284V50.328H245.284V48.328ZM244.9 46.6L243.152 47.5713L243.218 47.6907L243.3 47.8L244.9 46.6ZM243.364 45.768L242.93 47.7204L242.941 47.7228L242.952 47.7251L243.364 45.768ZM236.068 45.96L237.026 47.7158L237.051 47.702L237.076 47.6876L236.068 45.96ZM236.068 48.264L235.11 50.0198L235.142 50.0369L235.174 50.0529L236.068 48.264ZM239.652 48.968L239.426 50.9552L239.433 50.956L239.652 48.968ZM246.052 49.672L245.833 51.66L245.835 51.6602L246.052 49.672ZM255.78 52.808L257.102 51.3073V51.3073L255.78 52.808ZM256.484 64.648L254.951 63.3636L254.948 63.3676L256.484 64.648ZM250.852 68.296L250.171 66.4155V66.4155L250.852 68.296ZM241.764 69.64V67.64C236.287 67.64 232.43 66.623 229.919 64.8655L228.772 66.504L227.625 68.1425C231.088 70.5663 235.891 71.64 241.764 71.64V69.64ZM228.772 66.504L229.919 64.8655C227.478 63.1572 226.292 60.8735 226.292 57.8H224.292H222.292C222.292 62.1505 224.092 65.6695 227.625 68.1425L228.772 66.504ZM224.292 57.8H226.292V57.544H224.292H222.292V57.8H224.292ZM224.292 57.544V59.544H236.324V57.544V55.544H224.292V57.544ZM236.324 57.544H234.324V58.184H236.324H238.324V57.544H236.324ZM236.324 58.184H234.324C234.324 58.8876 234.465 59.6678 234.922 60.3665C235.4 61.0974 236.097 61.546 236.848 61.7667L237.412 59.848L237.976 57.9293C237.978 57.9296 238.023 57.9436 238.089 57.9901C238.158 58.0387 238.222 58.1041 238.27 58.1775C238.364 58.3215 238.324 58.3764 238.324 58.184H236.324ZM237.412 59.848L236.877 61.775C237.945 62.0717 239.68 62.168 241.828 62.168V60.168V58.168C239.624 58.168 238.415 58.051 237.947 57.921L237.412 59.848ZM241.828 60.168V62.168C242.9 62.168 243.813 62.1409 244.549 62.0815C245.225 62.027 245.946 61.9331 246.514 61.7147L245.796 59.848L245.078 57.9813C245.091 57.9762 244.873 58.0424 244.227 58.0945C243.641 58.1418 242.846 58.168 241.828 58.168V60.168ZM245.796 59.848L246.634 61.6639C247.16 61.4212 247.684 61.0467 248.071 60.4814C248.466 59.9041 248.628 59.2583 248.628 58.632H246.628H244.628C244.628 58.5603 244.652 58.3946 244.769 58.2226C244.879 58.0626 244.987 58.0188 244.958 58.0321L245.796 59.848ZM246.628 58.632H248.628C248.628 58.1021 248.517 57.4964 248.164 56.932C247.801 56.3515 247.28 55.9708 246.731 55.751L245.988 57.608L245.245 59.465C245.122 59.4158 244.921 59.2912 244.772 59.052C244.633 58.8289 244.628 58.6499 244.628 58.632H246.628ZM245.988 57.608L246.882 55.8191C246.418 55.587 245.852 55.4452 245.34 55.3428C244.785 55.2318 244.111 55.1336 243.335 55.0449L243.108 57.032L242.881 59.0191C243.598 59.101 244.151 59.1842 244.556 59.2652C245.004 59.3548 245.131 59.4156 245.094 59.3969L245.988 57.608ZM243.108 57.032L243.326 55.0439L233.982 54.0199L233.764 56.008L233.546 57.9961L242.89 59.0201L243.108 57.032ZM233.764 56.008L233.968 54.0184C230.88 53.7017 228.795 52.8548 227.468 51.6891L226.148 53.192L224.828 54.6949C227 56.6012 229.992 57.6316 233.56 57.9976L233.764 56.008ZM226.148 53.192L227.488 51.7072C226.227 50.5693 225.524 48.9916 225.524 46.728H223.524H221.524C221.524 49.9258 222.57 52.6573 224.808 54.6768L226.148 53.192ZM223.524 46.728H225.524C225.524 45.2038 225.94 43.845 226.781 42.5997L225.124 41.48L223.467 40.3603C222.175 42.2724 221.524 44.4122 221.524 46.728H223.524ZM225.124 41.48L226.775 42.6094C227.598 41.4059 228.998 40.3129 231.184 39.4307L230.436 37.576L229.688 35.7213C227.01 36.8018 224.869 38.3114 223.473 40.3506L225.124 41.48ZM230.436 37.576L231.173 39.4352C233.326 38.5816 236.29 38.104 240.164 38.104V36.104V34.104C236.016 34.104 232.496 34.6077 229.699 35.7168L230.436 37.576ZM240.164 36.104V38.104C243.775 38.104 246.667 38.537 248.901 39.3322L249.572 37.448L250.243 35.5638C247.442 34.567 244.062 34.104 240.164 34.104V36.104ZM249.572 37.448L248.911 39.3357C251.173 40.1274 252.715 41.2571 253.705 42.6425L255.332 41.48L256.959 40.3175C255.389 38.1189 253.091 36.5606 250.233 35.5603L249.572 37.448ZM255.332 41.48L253.737 42.6862C254.746 44.0212 255.316 45.7698 255.316 48.072H257.316H259.316C259.316 45.0835 258.563 42.4375 256.927 40.2738L255.332 41.48ZM257.316 48.072H255.316V48.328H257.316H259.316V48.072H257.316ZM257.316 48.328V46.328H245.284V48.328V50.328H257.316V48.328ZM245.284 48.328H247.284V47.944H245.284H243.284V48.328H245.284ZM245.284 47.944H247.284C247.284 47.0866 247.084 46.1788 246.5 45.4L244.9 46.6L243.3 47.8C243.269 47.7581 243.262 47.7305 243.265 47.7414C243.269 47.7566 243.284 47.8183 243.284 47.944H245.284ZM244.9 46.6L246.648 45.6287C245.986 44.4368 244.695 44.0044 243.776 43.8109L243.364 45.768L242.952 47.7251C243.091 47.7543 243.197 47.7839 243.274 47.8103C243.353 47.8369 243.392 47.8566 243.403 47.8626C243.431 47.8776 243.281 47.8042 243.152 47.5713L244.9 46.6ZM243.364 45.768L243.798 43.8156C242.805 43.595 241.428 43.512 239.78 43.512V45.512V47.512C241.375 47.512 242.387 47.5997 242.93 47.7204L243.364 45.768ZM239.78 45.512V43.512C238.758 43.512 237.87 43.5503 237.14 43.6384C236.484 43.7176 235.694 43.8628 235.06 44.2324L236.068 45.96L237.076 47.6876C236.954 47.7585 237.039 47.6797 237.62 47.6096C238.127 47.5483 238.839 47.512 239.78 47.512V45.512ZM236.068 45.96L235.11 44.2042C233.911 44.8581 233.364 46.0156 233.364 47.24H235.364H237.364C237.364 47.2027 237.37 47.294 237.292 47.4358C237.208 47.5893 237.092 47.6796 237.026 47.7158L236.068 45.96ZM235.364 47.24H233.364C233.364 48.5933 234.19 49.5176 235.11 50.0198L236.068 48.264L237.026 46.5082C236.989 46.4884 237.083 46.5305 237.188 46.6829C237.307 46.8562 237.364 47.0617 237.364 47.24H235.364ZM236.068 48.264L235.174 50.0529C235.687 50.3096 236.341 50.4724 236.963 50.5945C237.633 50.7262 238.46 50.8454 239.426 50.9552L239.652 48.968L239.878 46.9808C238.967 46.8773 238.258 46.7724 237.733 46.6695C237.161 46.557 236.961 46.4744 236.962 46.4751L236.068 48.264ZM239.652 48.968L239.433 50.956L245.833 51.66L246.052 49.672L246.271 47.684L239.871 46.98L239.652 48.968ZM246.052 49.672L245.835 51.6602C250.453 52.164 253.157 53.1625 254.458 54.3087L255.78 52.808L257.102 51.3073C254.819 49.2962 251.038 48.204 246.269 47.6838L246.052 49.672ZM255.78 52.808L254.458 54.3087C255.755 55.4512 256.468 57.0244 256.468 59.272H258.468H260.468C260.468 56.0583 259.389 53.3221 257.102 51.3073L255.78 52.808ZM258.468 59.272H256.468C256.468 60.794 255.981 62.1343 254.951 63.3636L256.484 64.648L258.017 65.9324C259.632 64.0044 260.468 61.7607 260.468 59.272H258.468ZM256.484 64.648L254.948 63.3676C253.955 64.5582 252.415 65.6031 250.171 66.4155L250.852 68.296L251.533 70.1765C254.238 69.197 256.453 67.8098 258.02 65.9284L256.484 64.648ZM250.852 68.296L250.171 66.4155C247.978 67.2096 245.194 67.64 241.764 67.64V69.64V71.64C245.502 71.64 248.777 71.1744 251.533 70.1765L250.852 68.296ZM285.486 69V71H287.486V69H285.486ZM267.566 65.992L266.239 67.4884L266.245 67.4945L266.252 67.5006L267.566 65.992ZM264.173 31.176V29.176H262.173V31.176H264.173ZM276.206 31.176H278.206V29.176H276.206V31.176ZM276.91 57.544L275.564 59.0239L275.596 59.0529L275.629 59.0804L276.91 57.544ZM285.486 58.184H287.486V56.184H285.486V58.184ZM285.486 46.6V48.6H287.486V46.6H285.486ZM259.438 46.6H257.438V48.6H259.438V46.6ZM259.438 36.744V34.744H257.438V36.744H259.438ZM285.486 36.744H287.486V34.744H285.486V36.744ZM285.486 69V67H277.038V69V71H285.486V69ZM277.038 69V67C273.356 67 270.717 66.0837 268.879 64.4834L267.566 65.992L266.252 67.5006C269.022 69.911 272.698 71 277.038 71V69ZM267.566 65.992L268.892 64.4956C267.204 62.9986 266.173 60.5492 266.173 56.712H264.173H262.173C262.173 61.2375 263.404 64.9747 266.239 67.4884L267.566 65.992ZM264.173 56.712H266.173V31.176H264.173H262.173V56.712H264.173ZM264.173 31.176V33.176H276.206V31.176V29.176H264.173V31.176ZM276.206 31.176H274.206V54.984H276.206H278.206V31.176H276.206ZM276.206 54.984H274.206C274.206 56.325 274.413 57.9772 275.564 59.0239L276.91 57.544L278.255 56.0641C278.391 56.1876 278.365 56.2535 278.31 56.0537C278.256 55.8578 278.206 55.5171 278.206 54.984H276.206ZM276.91 57.544L275.629 59.0804C276.724 59.9926 278.303 60.184 279.725 60.184V58.184V56.184C279.135 56.184 278.718 56.1368 278.441 56.0737C278.152 56.0081 278.12 55.9492 278.19 56.0076L276.91 57.544ZM279.725 58.184V60.184H285.486V58.184V56.184H279.725V58.184ZM285.486 58.184H283.486V69H285.486H287.486V58.184H285.486ZM285.486 46.6V44.6H259.438V46.6V48.6H285.486V46.6ZM259.438 46.6H261.438V36.744H259.438H257.438V46.6H259.438ZM259.438 36.744V38.744H285.486V36.744V34.744H259.438V36.744ZM285.486 36.744H283.486V46.6H285.486H287.486V36.744H285.486ZM294.182 68.04L293.226 69.7972L294.182 68.04ZM289.766 63.688L287.985 64.599L287.993 64.6152L288.002 64.6313L289.766 63.688ZM288.357 36.744V34.744H286.357V36.744H288.357ZM300.389 36.744H302.389V34.744H300.389V36.744ZM301.926 57.608L300.645 59.1444L300.66 59.1572L300.676 59.1697L301.926 57.608ZM313.126 57.736L314.427 59.2545L314.433 59.2496L313.126 57.736ZM314.534 53.384V51.384H312.534V53.384H314.534ZM315.749 53.384L317.719 53.0377L317.429 51.384H315.749V53.384ZM316.773 59.208V61.208H319.156L318.743 58.8617L316.773 59.208ZM314.661 59.208V57.208H312.885L312.676 58.9716L314.661 59.208ZM312.934 64.264L314.653 65.2861V65.2861L312.934 64.264ZM308.773 68.168L309.717 69.9316L309.733 69.9231L309.748 69.9144L308.773 68.168ZM326.566 69V71H328.566V69H326.566ZM315.301 69H313.301V71H315.301V69ZM315.301 59.08H317.301V57.7467L316.071 57.2338L315.301 59.08ZM314.534 58.76H312.534V60.0933L313.764 60.6062L314.534 58.76ZM314.534 36.744V34.744H312.534V36.744H314.534ZM326.566 36.744H328.566V34.744H326.566V36.744ZM301.605 69.64V67.64C298.844 67.64 296.724 67.1455 295.137 66.2828L294.182 68.04L293.226 69.7972C295.564 71.0679 298.393 71.64 301.605 71.64V69.64ZM294.182 68.04L295.137 66.2828C293.491 65.3882 292.312 64.2093 291.529 62.7447L289.766 63.688L288.002 64.6313C289.181 66.8361 290.947 68.5584 293.226 69.7972L294.182 68.04ZM289.766 63.688L291.546 62.777C290.77 61.2613 290.357 59.4902 290.357 57.416H288.357H286.357C286.357 60.0352 286.883 62.4454 287.985 64.599L289.766 63.688ZM288.357 57.416H290.357V36.744H288.357H286.357V57.416H288.357ZM288.357 36.744V38.744H300.389V36.744V34.744H288.357V36.744ZM300.389 36.744H298.389V53H300.389H302.389V36.744H300.389ZM300.389 53H298.389C298.389 55.4281 298.935 57.7196 300.645 59.1444L301.926 57.608L303.206 56.0716C302.868 55.7897 302.389 55.0092 302.389 53H300.389ZM301.926 57.608L300.676 59.1697C302.311 60.4777 304.819 60.888 307.622 60.888V58.888V56.888C304.963 56.888 303.673 56.445 303.175 56.0463L301.926 57.608ZM307.622 58.888V60.888C309.087 60.888 310.388 60.7877 311.487 60.5576C312.559 60.3332 313.616 59.9501 314.427 59.2545L313.126 57.736L311.824 56.2175C311.739 56.2899 311.43 56.4828 310.668 56.6424C309.933 56.7963 308.929 56.888 307.622 56.888V58.888ZM313.126 57.736L314.433 59.2496C316.036 57.8649 316.534 55.6723 316.534 53.384H314.534H312.534C312.534 55.2771 312.092 55.9858 311.818 56.2224L313.126 57.736ZM314.534 53.384V55.384H315.749V53.384V51.384H314.534V53.384ZM315.749 53.384L313.78 53.7303L314.804 59.5543L316.773 59.208L318.743 58.8617L317.719 53.0377L315.749 53.384ZM316.773 59.208V57.208H314.661V59.208V61.208H316.773V59.208ZM314.661 59.208L312.676 58.9716C312.496 60.4809 312.013 61.8992 311.214 63.2419L312.934 64.264L314.653 65.2861C315.732 63.4715 316.4 61.5191 316.647 59.4444L314.661 59.208ZM312.934 64.264L311.214 63.2418C310.48 64.4764 309.371 65.5442 307.799 66.4216L308.773 68.168L309.748 69.9144C311.845 68.7438 313.509 67.209 314.653 65.2861L312.934 64.264ZM308.773 68.168L307.83 66.4044C306.381 67.1795 304.349 67.64 301.605 67.64V69.64V71.64C304.75 71.64 307.497 71.1191 309.717 69.9316L308.773 68.168ZM326.566 69V67H315.301V69V71H326.566V69ZM315.301 69H317.301V59.08H315.301H313.301V69H315.301ZM315.301 59.08L316.071 57.2338L315.303 56.9138L314.534 58.76L313.764 60.6062L314.532 60.9262L315.301 59.08ZM314.534 58.76H316.534V36.744H314.534H312.534V58.76H314.534ZM314.534 36.744V38.744H326.566V36.744V34.744H314.534V36.744ZM326.566 36.744H324.566V69H326.566H328.566V36.744H326.566ZM336.442 67.656L335.408 69.3681L335.427 69.3795L335.446 69.3905L336.442 67.656ZM331.258 61.832L329.439 62.6642L329.445 62.6769L329.451 62.6895L331.258 61.832ZM331.258 43.912L333.071 44.7561L333.077 44.7442L331.258 43.912ZM336.25 38.152L337.289 39.8611L337.298 39.8553L336.25 38.152ZM352.89 38.6L351.58 40.1114L351.59 40.1198L351.6 40.1281L352.89 38.6ZM356.474 45.064L354.504 45.408L354.793 47.064H356.474V45.064ZM358.33 45.064H360.33V43.064H358.33V45.064ZM358.33 52.488V54.488H360.33V52.488H358.33ZM357.114 52.488H355.114V54.488H357.114V52.488ZM355.13 48.072L354.189 49.8367L354.201 49.8431L354.213 49.8492L355.13 48.072ZM344.762 47.624L345.416 49.514V49.514L344.762 47.624ZM342.394 49.48L344.125 50.4821L344.136 50.4631L344.146 50.4438L342.394 49.48ZM342.394 56.264L344.146 55.3002V55.3002L342.394 56.264ZM344.762 58.12L344.108 60.01L344.141 60.0213L344.174 60.0316L344.762 58.12ZM353.594 58.184L353.109 56.2437L353.1 56.2458L353.092 56.248L353.594 58.184ZM356.218 56.52L354.58 55.3731L354.573 55.3818L354.567 55.3906L356.218 56.52ZM357.114 52.936V50.936H355.114V52.936H357.114ZM358.33 52.936L360.315 52.6943L360.101 50.936H358.33V52.936ZM359.226 60.296V62.296H361.484L361.211 60.0543L359.226 60.296ZM357.242 60.296V58.296H355.537L355.267 59.98L357.242 60.296ZM353.466 67.4L354.677 68.9917L354.682 68.9878L353.466 67.4ZM369.146 69V71H371.146V69H369.146ZM357.882 69H355.882V71H357.882V69ZM357.882 59.912H359.882V59.13L359.352 58.5554L357.882 59.912ZM357.114 59.08H355.114V59.862L355.644 60.4366L357.114 59.08ZM357.114 26.12V24.12H355.114V26.12H357.114ZM369.146 26.12H371.146V24.12H369.146V26.12ZM344.826 69.64V67.64C341.808 67.64 339.375 67.0335 337.438 65.9215L336.442 67.656L335.446 69.3905C338.117 70.9238 341.273 71.64 344.826 71.64V69.64ZM336.442 67.656L337.476 65.9439C335.569 64.7928 334.101 63.1578 333.065 60.9745L331.258 61.832L329.451 62.6895C330.804 65.5409 332.792 67.7885 335.408 69.3681L336.442 67.656ZM331.258 61.832L333.077 60.9998C332.07 58.8 331.53 56.1101 331.53 52.872H329.53H327.53C327.53 56.5459 328.142 59.8293 329.439 62.6642L331.258 61.832ZM329.53 52.872H331.53C331.53 49.5857 332.072 46.9029 333.071 44.7561L331.258 43.912L329.445 43.0679C328.14 45.8704 327.53 49.1609 327.53 52.872H329.53ZM331.258 43.912L333.077 44.7442C334.077 42.5574 335.484 40.9578 337.289 39.861L336.25 38.152L335.211 36.443C332.664 37.9915 330.743 40.2319 329.439 43.0798L331.258 43.912ZM336.25 38.152L337.298 39.8553C339.141 38.7215 341.448 38.104 344.314 38.104V36.104V34.104C340.865 34.104 337.797 34.8519 335.202 36.4487L336.25 38.152ZM344.314 36.104V38.104C347.861 38.104 350.167 38.8864 351.58 40.1114L352.89 38.6L354.2 37.0886C351.773 34.9856 348.362 34.104 344.314 34.104V36.104ZM352.89 38.6L351.6 40.1281C353.129 41.4199 354.108 43.1396 354.504 45.408L356.474 45.064L358.444 44.72C357.902 41.6124 356.491 39.0228 354.18 37.0719L352.89 38.6ZM356.474 45.064V47.064H358.33V45.064V43.064H356.474V45.064ZM358.33 45.064H356.33V52.488H358.33H360.33V45.064H358.33ZM358.33 52.488V50.488H357.114V52.488V54.488H358.33V52.488ZM357.114 52.488H359.114C359.114 49.9073 358.345 47.4807 356.047 46.2948L355.13 48.072L354.213 49.8492C354.56 50.0286 355.114 50.546 355.114 52.488H357.114ZM355.13 48.072L356.071 46.3073C354.348 45.3881 351.959 45.048 349.178 45.048V47.048V49.048C351.773 49.048 353.352 49.3905 354.189 49.8367L355.13 48.072ZM349.178 47.048V45.048C347.231 45.048 345.512 45.2481 344.108 45.734L344.762 47.624L345.416 49.514C346.231 49.2319 347.455 49.048 349.178 49.048V47.048ZM344.762 47.624L344.108 45.734C342.632 46.245 341.397 47.1433 340.642 48.5162L342.394 49.48L344.146 50.4438C344.33 50.1101 344.674 49.771 345.416 49.514L344.762 47.624ZM342.394 49.48L340.663 48.4779C339.946 49.7162 339.69 51.246 339.69 52.872H341.69H343.69C343.69 51.5967 343.903 50.8651 344.125 50.4821L342.394 49.48ZM341.69 52.872H339.69C339.69 54.4765 339.953 55.9767 340.642 57.2278L342.394 56.264L344.146 55.3002C343.896 54.8447 343.69 54.0835 343.69 52.872H341.69ZM342.394 56.264L340.642 57.2278C341.397 58.6007 342.632 59.499 344.108 60.01L344.762 58.12L345.416 56.23C344.674 55.973 344.33 55.6339 344.146 55.3002L342.394 56.264ZM344.762 58.12L344.174 60.0316C345.551 60.4553 347.245 60.632 349.178 60.632V58.632V56.632C347.441 56.632 346.192 56.4673 345.35 56.2084L344.762 58.12ZM349.178 58.632V60.632C351.063 60.632 352.72 60.4768 354.096 60.12L353.594 58.184L353.092 56.248C352.164 56.4886 350.877 56.632 349.178 56.632V58.632ZM353.594 58.184L354.079 60.1243C355.624 59.7382 356.973 58.9587 357.869 57.6494L356.218 56.52L354.567 55.3906C354.354 55.7027 353.954 56.0325 353.109 56.2437L353.594 58.184ZM356.218 56.52L357.856 57.6669C358.777 56.3524 359.114 54.6974 359.114 52.936H357.114H355.114C355.114 54.2466 354.854 54.9809 354.58 55.3731L356.218 56.52ZM357.114 52.936V54.936H358.33V52.936V50.936H357.114V52.936ZM358.33 52.936L356.345 53.1777L357.241 60.5377L359.226 60.296L361.211 60.0543L360.315 52.6943L358.33 52.936ZM359.226 60.296V58.296H357.242V60.296V62.296H359.226V60.296ZM357.242 60.296L355.267 59.98C354.812 62.8231 353.743 64.6683 352.25 65.8122L353.466 67.4L354.682 68.9878C357.199 67.0597 358.648 64.1689 359.217 60.612L357.242 60.296ZM353.466 67.4L352.255 65.8083C350.784 66.9279 348.408 67.64 344.826 67.64V69.64V71.64C348.838 71.64 352.223 70.8588 354.677 68.9917L353.466 67.4ZM369.146 69V67H357.882V69V71H369.146V69ZM357.882 69H359.882V59.912H357.882H355.882V69H357.882ZM357.882 59.912L359.352 58.5554L358.584 57.7234L357.114 59.08L355.644 60.4366L356.412 61.2686L357.882 59.912ZM357.114 59.08H359.114V26.12H357.114H355.114V59.08H357.114ZM357.114 26.12V28.12H369.146V26.12V24.12H357.114V26.12ZM369.146 26.12H367.146V69H369.146H371.146V26.12H369.146ZM385.014 69V71H387.014V69H385.014ZM372.983 69H370.983V71H372.983V69ZM372.983 36.744V34.744H370.983V36.744H372.983ZM385.014 36.744H387.014V34.744H385.014V36.744ZM385.014 33.8V35.8H387.014V33.8H385.014ZM372.983 33.8H370.983V35.8H372.983V33.8ZM372.983 26.12V24.12H370.983V26.12H372.983ZM385.014 26.12H387.014V24.12H385.014V26.12ZM385.014 69V67H372.983V69V71H385.014V69ZM372.983 69H374.983V36.744H372.983H370.983V69H372.983ZM372.983 36.744V38.744H385.014V36.744V34.744H372.983V36.744ZM385.014 36.744H383.014V69H385.014H387.014V36.744H385.014ZM385.014 33.8V31.8H372.983V33.8V35.8H385.014V33.8ZM372.983 33.8H374.983V26.12H372.983H370.983V33.8H372.983ZM372.983 26.12V28.12H385.014V26.12V24.12H372.983V26.12ZM385.014 26.12H383.014V33.8H385.014H387.014V26.12H385.014ZM396.858 67.656L395.985 69.4556L396.001 69.4635L396.018 69.4711L396.858 67.656ZM390.266 43.912L391.952 44.9876L391.956 44.9811L391.96 44.9746L390.266 43.912ZM396.858 38.152L397.708 39.9623L397.719 39.9567L396.858 38.152ZM416.569 38.152L415.697 39.9516L415.708 39.957L415.719 39.9623L416.569 38.152ZM423.161 43.912L421.467 44.9746L421.471 44.9811L421.475 44.9876L423.161 43.912ZM416.569 67.656L417.42 69.4663L417.431 69.461L417.442 69.4556L416.569 67.656ZM412.217 57.736L413.563 59.2159L413.581 59.1995L413.598 59.1827L412.217 57.736ZM412.217 48.008L410.837 49.4547V49.4547L412.217 48.008ZM401.21 57.736L399.829 59.1827L399.846 59.1995L399.864 59.2159L401.21 57.736ZM406.714 69.64V67.64C403.24 67.64 400.25 67.0219 397.697 65.8409L396.858 67.656L396.018 69.4711C399.182 70.9354 402.763 71.64 406.714 71.64V69.64ZM396.858 67.656L397.73 65.8564C395.233 64.6456 393.328 62.9516 391.96 60.7694L390.266 61.832L388.571 62.8946C390.36 65.7471 392.85 67.9357 395.985 69.4556L396.858 67.656ZM390.266 61.832L391.96 60.7694C390.612 58.6196 389.897 56.0146 389.897 52.872H387.897H385.897C385.897 56.6414 386.762 60.0098 388.571 62.8946L390.266 61.832ZM387.897 52.872H389.897C389.897 49.6804 390.614 47.0838 391.952 44.9876L390.266 43.912L388.579 42.8364C386.759 45.6895 385.897 49.0663 385.897 52.872H387.897ZM390.266 43.912L391.96 44.9746C393.325 42.798 395.222 41.1299 397.708 39.9623L396.858 38.152L396.007 36.3417C392.861 37.8194 390.363 39.9913 388.571 42.8494L390.266 43.912ZM396.858 38.152L397.719 39.9567C400.267 38.7402 403.249 38.104 406.714 38.104V36.104V34.104C402.754 34.104 399.166 34.8331 395.996 36.3473L396.858 38.152ZM406.714 36.104V38.104C410.226 38.104 413.202 38.7419 415.697 39.9516L416.569 38.152L417.442 36.3524C414.305 34.8314 410.711 34.104 406.714 34.104V36.104ZM416.569 38.152L415.719 39.9623C418.205 41.1299 420.102 42.798 421.467 44.9746L423.161 43.912L424.856 42.8494C423.064 39.9913 420.566 37.8194 417.42 36.3417L416.569 38.152ZM423.161 43.912L421.475 44.9876C422.813 47.0838 423.53 49.6804 423.53 52.872H425.53H427.53C427.53 49.0663 426.668 45.6895 424.848 42.8364L423.161 43.912ZM425.53 52.872H423.53C423.53 56.0146 422.815 58.6196 421.467 60.7694L423.161 61.832L424.856 62.8946C426.665 60.0098 427.53 56.6414 427.53 52.872H425.53ZM423.161 61.832L421.467 60.7694C420.099 62.9516 418.194 64.6456 415.697 65.8564L416.569 67.656L417.442 69.4556C420.577 67.9357 423.067 65.7471 424.856 62.8946L423.161 61.832ZM416.569 67.656L415.719 65.8457C413.219 67.0203 410.234 67.64 406.714 67.64V69.64V71.64C410.702 71.64 414.288 70.937 417.42 69.4663L416.569 67.656ZM406.714 59.016V61.016C408.17 61.016 409.475 60.9035 410.591 60.644C411.691 60.3881 412.748 59.9571 413.563 59.2159L412.217 57.736L410.872 56.2561C410.749 56.3683 410.419 56.5772 409.684 56.748C408.966 56.9151 407.988 57.016 406.714 57.016V59.016ZM412.217 57.736L413.598 59.1827C415.152 57.6996 415.625 55.3598 415.625 52.872H413.625H411.625C411.625 55.0775 411.16 55.9804 410.837 56.2893L412.217 57.736ZM413.625 52.872H415.625C415.625 50.3842 415.152 48.0444 413.598 46.5613L412.217 48.008L410.837 49.4547C411.16 49.7636 411.625 50.6665 411.625 52.872H413.625ZM412.217 48.008L413.598 46.5613C412.786 45.7857 411.725 45.3288 410.612 45.0571C409.487 44.7825 408.174 44.664 406.714 44.664V46.664V48.664C407.983 48.664 408.953 48.7695 409.663 48.9429C410.385 49.1192 410.71 49.3343 410.837 49.4547L412.217 48.008ZM406.714 46.664V44.664C405.253 44.664 403.94 44.7825 402.815 45.0571C401.702 45.3288 400.641 45.7857 399.829 46.5613L401.21 48.008L402.59 49.4547C402.717 49.3343 403.042 49.1192 403.764 48.9429C404.474 48.7695 405.444 48.664 406.714 48.664V46.664ZM401.21 48.008L399.829 46.5613C398.275 48.0444 397.802 50.3842 397.802 52.872H399.802H401.802C401.802 50.6665 402.267 49.7636 402.59 49.4547L401.21 48.008ZM399.802 52.872H397.802C397.802 55.3598 398.275 57.6996 399.829 59.1827L401.21 57.736L402.59 56.2893C402.267 55.9804 401.802 55.0775 401.802 52.872H399.802ZM401.21 57.736L399.864 59.2159C400.679 59.9571 401.736 60.3881 402.836 60.644C403.952 60.9035 405.257 61.016 406.714 61.016V59.016V57.016C405.439 57.016 404.461 56.9151 403.743 56.748C403.008 56.5772 402.678 56.3683 402.555 56.2561L401.21 57.736Z" fill="black" mask="url(#path-3-outside-1_76_516)"/>
</g>
<defs>
<filter id="filter0_d_76_516" x="0" y="18" width="58" height="67.3657" filterUnits="userSpaceOnUse" color-interpolation-filters="sRGB">
<feFlood flood-opacity="0" result="BackgroundImageFix"/>
<feColorMatrix in="SourceAlpha" type="matrix" values="0 0 0 0 0 0 0 0 0 0 0 0 0 0 0 0 0 0 127 0" result="hardAlpha"/>
<feOffset dx="4" dy="4"/>
<feComposite in2="hardAlpha" operator="out"/>
<feColorMatrix type="matrix" values="0 0 0 0 0 0 0 0 0 0 0 0 0 0 0 0 0 0 1 0"/>
<feBlend mode="normal" in2="BackgroundImageFix" result="effect1_dropShadow_76_516"/>
<feBlend mode="normal" in="SourceGraphic" in2="effect1_dropShadow_76_516" result="shape"/>
</filter>
<filter id="filter1_d_76_516" x="85.4199" y="24.1201" width="346.109" height="51.52" filterUnits="userSpaceOnUse" color-interpolation-filters="sRGB">
<feFlood flood-opacity="0" result="BackgroundImageFix"/>
<feColorMatrix in="SourceAlpha" type="matrix" values="0 0 0 0 0 0 0 0 0 0 0 0 0 0 0 0 0 0 127 0" result="hardAlpha"/>
<feOffset dx="4" dy="4"/>
<feComposite in2="hardAlpha" operator="out"/>
<feColorMatrix type="matrix" values="0 0 0 0 0 0 0 0 0 0 0 0 0 0 0 0 0 0 1 0"/>
<feBlend mode="normal" in2="BackgroundImageFix" result="effect1_dropShadow_76_516"/>
<feBlend mode="normal" in="SourceGraphic" in2="effect1_dropShadow_76_516" result="shape"/>
</filter>
</defs>
</svg>
